/* XPM */
static char *DOTA2_ICON[] = {
/* columns rows colors chars-per-pixel */
"48 48 209 2 ",
"   c black",
".  c #070707",
"X  c #0D0B0A",
"o  c #120D0C",
"O  c #1B0C0C",
"+  c #19100E",
"@  c #141312",
"#  c #1B1211",
"$  c #1C1816",
"%  c #1A1A19",
"&  c #241513",
"*  c #291614",
"=  c #231916",
"-  c #2B1816",
";  c #231D1C",
":  c #2D1D1B",
">  c #351815",
",  c #3C1816",
"<  c #321B19",
"1  c #3C1D1A",
"2  c #26201E",
"3  c #27201F",
"4  c #34211E",
"5  c #232221",
"6  c #272625",
"7  c #2C2523",
"8  c #2E2926",
"9  c #2C2B2A",
"0  c #372523",
"q  c #3B2421",
"w  c #302926",
"e  c #342D2B",
"r  c #3A2D2A",
"t  c #31302F",
"y  c #3B302D",
"u  c #353331",
"i  c #3D3431",
"p  c #3D3836",
"a  c #3C3B39",
"s  c #421D1B",
"d  c #4B1D1A",
"f  c #531D1B",
"g  c #591E1C",
"h  c #631F1C",
"j  c #691F1C",
"k  c #731415",
"l  c #791615",
"z  c #7D1616",
"x  c #761916",
"c  c #7D1916",
"v  c #761D1A",
"b  c #791918",
"n  c #7E1A19",
"m  c #791D19",
"M  c #7D1C1A",
"N  c #7D1F1E",
"B  c #43211D",
"V  c #4C211D",
"C  c #53201D",
"Z  c #5C201E",
"A  c #64201E",
"S  c #6B201D",
"D  c #74221E",
"F  c #7A211D",
"G  c #442522",
"H  c #4B2422",
"J  c #442A26",
"K  c #4A2826",
"L  c #402D2A",
"P  c #482D29",
"I  c #552320",
"U  c #5C2521",
"Y  c #562823",
"T  c #5D2925",
"R  c #542F29",
"E  c #592F29",
"W  c #41312E",
"Q  c #4B322E",
"!  c #58322D",
"~  c #433531",
"^  c #4E3530",
"/  c #483A37",
"(  c #413D3A",
")  c #4B3F3C",
"_  c #583535",
"`  c #513E3B",
"'  c #5C3A38",
"]  c #632320",
"[  c #6B2421",
"{  c #642925",
"}  c #6D2925",
"|  c #6F2D29",
" . c #702221",
".. c #752220",
"X. c #702522",
"o. c #752420",
"O. c #702725",
"+. c #772724",
"@. c #782221",
"#. c #7D2220",
"$. c #792521",
"%. c #7D2421",
"&. c #792624",
"*. c #7E2524",
"=. c #742925",
"-. c #7B2924",
";. c #722B28",
":. c #7C2C28",
">. c #73332E",
",. c #44403D",
"<. c #53433E",
"1. c #61413F",
"2. c #464341",
"3. c #484543",
"4. c #484644",
"5. c #4B4845",
"6. c #4D4B48",
"7. c #544A46",
"8. c #57514E",
"9. c #565451",
"0. c #595552",
"q. c #5A5552",
"w. c #5C5955",
"e. c #644342",
"r. c #694B49",
"t. c #745452",
"y. c #801617",
"u. c #811618",
"i. c #851719",
"p. c #88171A",
"a. c #811918",
"s. c #851819",
"d. c #861C1A",
"f. c #851E1D",
"g. c #89181A",
"h. c #8C181B",
"j. c #891C1A",
"k. c #8A191C",
"l. c #8D191C",
"z. c #891D1D",
"x. c #8D1D1C",
"c. c #90191C",
"v. c #901A1D",
"b. c #921A1D",
"n. c #911B1E",
"m. c #921A1E",
"M. c #941A1D",
"N. c #941A1E",
"B. c #961B1E",
"V. c #911D1D",
"C. c #951D1E",
"Z. c #981B1E",
"A. c #991C1E",
"S. c #81201F",
"D. c #8C201D",
"F. c #95201E",
"G. c #8B1E20",
"H. c #961F21",
"J. c #9B1B20",
"K. c #9A1C20",
"L. c #9C1C20",
"P. c #9E1C20",
"I. c #9C1E20",
"U. c #9F1E20",
"Y. c #9D1F22",
"T. c #A01B20",
"R. c #A01C20",
"E. c #A21C20",
"W. c #A01E20",
"Q. c #A31F22",
"!. c #A41C20",
"~. c #A61C21",
"^. c #A51E21",
"/. c #A61E21",
"(. c #A41D22",
"). c #A61D22",
"_. c #A41E22",
"`. c #A61E22",
"'. c #A81D22",
"]. c #812121",
"[. c #852220",
"{. c #822523",
"}. c #852422",
"|. c #812624",
" X c #852624",
".X c #882120",
"XX c #8E2121",
"oX c #8A2422",
"OX c #8F2423",
"+X c #8A2525",
"@X c #8D2524",
"#X c #832926",
"$X c #8B2826",
"%X c #822D2A",
"&X c #8B2A28",
"*X c #922122",
"=X c #962122",
"-X c #952525",
";X c #992021",
":X c #9F2123",
">X c #9D2224",
",X c #982626",
"<X c #9D2425",
"1X c #932826",
"2X c #972728",
"3X c #912B2A",
"4X c #982A29",
"5X c #813530",
"6X c #A22223",
/* pixels */
"                                                                                                ",
"                                                                                                ",
"                                          8.    0.    w.7.                                      ",
"      ,.0./ 0 y i ( 8.8.7.p       X o ! [ S { T [ ] R 0 T : V f f f H P r : G q ~ ( y 5.        ",
"    ~ | D =.:.-.=.| O.} S S C d f d ] m b z x F k x o.S 4 + A m M c D -.>.m F F ..o.D U r       ",
"    ^ #.u.s.u.z k a.z l u.u.a.z v k l n z l l l l l l a.X.D x l l l l c c c c c a.a.c c T t     ",
"    L $.y.u.u.z u.i.z u.i.u.z l a.z i.u.k u.u.z z z z i.z l z z k c c a.c k a.c c a.a.c { 5     ",
"    r } i.z g.u.i.y.u.g.i.i.u.y.u.s.u.y.z z i.i.u.u.u.z u.l z z z z z a.a.c a.c c a.d.a.C 9     ",
"    y [ i.i.g.i.u.u.i.s.y.i.u.i.i.i.s.i.i.z i.i.i.k u.u.i.z z z a.z a.c a.a.c s.a.s.a.d.A t     ",
"    W $.i.i.g.i.i.u.g.i.u.l.g.g.h.p.y.i.s.u.i.s.g.u.s.i.u.z z s.a.s.n s.a.g.s.a.s.s.d.j.{ 5     ",
"    ~ -.l.i.g.p.M @.j v g.g.g.g.h.l.i.i.i.g.i.g.i.h.g.g.g.s.s.y.n v m a.s.g.s.j.j.d.j.d.X.%     ",
"    e #.l.i.i.+.> X @ : ] k.g.g.g.g.g.s.i.g.i.g.g.g.s.g.l.S.[ I , # - Z f.a.a.s.j.x.j.j.$.@     ",
"    W  Xl.g.g.z.C ;     t d N g.g.i.g.i.i.g.g.g.g.i.g.F V @ . 5 6.    5 T g.j.j.j.j.j.x.%.@     ",
"    ! x.h.g.k.l.z.d 6.    0.4 -.l.i.g.s.g.i.g.l.h.i.g.p.N 1 u         2.d x.k.j.z.x.z.D.$.@     ",
"    Q XXl.g.g.l.l.z.H w.      : ] f.g.i.i.g.h.l.g.l.l.g.l.a.I 3.        U g.h.j.j.j.x.D.&.%     ",
"    Q oXl.l.v.v.l.g.z.H 6       e , [ g.i.l.g.l.k.g.l.l.l.g.k.S W       S h.h.V.x.V.V.D.=.%     ",
"    Q OXl.h.l.l.l.l.h.f.G           9 C S.g.s.l.l.g.N.g.g.l.g.l.@.G 0.,.&.l.l.x.V.B.V.F.| 5     ",
"    r #Xl.N.h.l.l.l.l.h.D.1           9.< S l.l.v.g.v.v.v.l.l.k.K.z.! O G.l.v.V.x.x.V.}.{ 5     ",
"    r ;.l.v.v.v.l.N.N.v.l.z.s             e f .Xv.l.N.l.v.N.v.v.v.v.x.#XH.v.V.V.V.V.V.[ X 9.    ",
"    W U v.l.v.v.v.N.v.v.l.v.S.q             8.1 ..V.v.h.v.v.v.v.v.l.V.N.x.V.V.V.B.B.F.d %       ",
"    e ] l.N.v.N.N.B.N.v.v.N.N.{.q               e U .Xv.v.N.N.v.v.l.l.v.V.V.V.x.D.x.=X1 a       ",
"    5 | v.v.v.v.v.N.N.N.v.v.N.N.{.:               6.1 @.h.N.N.N.N.l.v.N.B.B.V.V.V.V.V.#X;       ",
"    e f N.N.Z.Z.v.N.A.N.N.B.N.N.N.[.B 0.              7 U XXN.N.N.v.v.K.V.B.B.D.z.F.V.1XO       ",
"    w o ].N.N.A.N.B.B.N.v.N.B.N.N.v.].:                 5.1 F B.N.N.N.v.V.B.A.B.V.B.B.F.V 4.    ",
"    r J @XN.B.B.Z.N.v.Z.N.Z.N.N.N.N.N.@.r                   w ] x.B.B.N.B.v.K.V.a.B.A.A.< 9.    ",
"    e #XA.N.B.B.A.N.N.Z.N.N.N.N.N.N.N.A...e                   ,.s  XA.N.N.A.B.A.D.B.K.;X*       ",
"    7.G.Z.Z.A.A.Z.Z.A.Z.N.B.B.N.A.Z.K.N.N.D w                     ; A ;XB.N.B.A.L.A.B.#XO       ",
"    8.XXN.Z.A.N.A.A.N.K.L.L.K.A.L.A.K.A.N.A.-.3                   6 4 E }.A.L.K.A.A.;XoX[ t     ",
"    0.G.A.Z.A.A.L.A.OXK.Z.Z.K.Z.Z.R.A.Z.Z.K.A.;.q 6                 3.9 : S =XB.K.K.A.A.*.%     ",
"    0.D.N.A.Z.Z.L.N.Z Z H.A.R.A.N.L.Z.Z.L.L.K.K.:.$                       ( B .XA.K.K.A. X%     ",
"      C .XB.K.K.L.*X& @ I =XJ.Z.Z.Z.L.L.L.Z.L.L.L.-.5                         H L.A.K.L.*.%     ",
"      ( G.N.R.R.Z.[ %   6.U L.Z.L.A.N.Z.K.Z.R.L.L.L.[ u                       Z R.A.6X6X X%     ",
"      0.XXL.L.L.;X< 6.    5.f =XL.A.Z.R.L.L.L.R.L.R.L.g 9.                    X.R.L.6X6X%.%     ",
"      <.1XR.K.L. X@         5.f =XA.L.L.R.R.R.L.R.R.R.K.Z 0.                w.+XL.L.R.L. X%     ",
"      : -XR.A.W.V u           9.V K.R.A.R.R.L.R.R.~.L.R.;Xf 0.              ^ 6XL.K.K.L.*.%     ",
"    6 &.R.R.J.W.< 6.            6 V ;XA.A.L.L.R.R.~.L.R.R.;Xd 6             [ ~.L.L.L.L.*.%     ",
"    8.*XR.R.L.~.*XV 3 8.          ; U :XL.R.L.R.L.R.R.R.'.~.=Xs           7.*XR.L.R.L.R. X%     ",
"    7.*XR.L.L.R.R.6X] + 3   0.! [ oX=XL.K.A.L.R.R.R.~.J._.~.~.G.I K ` <.` [ A.R.R.K.R.L. X%     ",
"    8.G.'.L.~.L.~.R.~.#X=. .*X:XR.~.R.R.L.A.R.R.`.'._.E.~.6X~.L.R.:X2X;X;X:XR.~.R.L.R.R. X%     ",
"    0.XXR.R.~.'.R.~.R.A.~.~.L.R.R.~.~.~.R.R.R.~.`.`.6X'.~.~.~.L.R.~.L.L.R.R.~.R.L.R.R.R. X%     ",
"    0.@XR.~.'.!.6XR.R.R.~.R.R.R.R.'.'.~.~.R.A.'.~.R.~.~.!.T.W.!.'.!.`.R._.~.R.~.R.R.R.A.#X%     ",
"    0.*XR.'.'.6XR.'.'.R.R.~.~.R.R.~.'.'.'.R.~.!.~.~.6XR.!.!.T.~.~.'.6XR.~.'.6X~.!.~.'.A.+X%     ",
"    8.=XR.'.'.~.~.R.'.'.'.'.A.R.~.~.'.'.'.'.'.'.6X~.~.~.W.!.A.~.'.~.~.R.R.~.'.~.~.~.~.~.+X%     ",
"    7.[ 3X6X4X&X&X3X X,X$X<X-X%X&X<X'.6XR.'.6XW.~.W.~.'.T.!.~.~.~.'.6X~.~.~.'.'.:.S %.6X@X%     ",
"      $ = & O o # # # & o & + o # & 1 s ;X;X3X<X6X-XXX.X[. X5X#X$.A - A Z #.XX}.U = X * V 5     ",
"          w.  4.  4.                  ( g d B 1 f Y # X # V > o % t 6.6.p 9 $ @ 9 w.    w.      ",
"                                        e.H _ e.e.' t.  3 r.r.3                                 ",
"                                                                                                "
};
